<?xml version="1.0" encoding="UTF-8" standalone="no"?>
<!-- Generator: Adobe Illustrator 19.0.0, SVG Export Plug-In . SVG Version: 6.00 Build 0)  -->

<svg
   xmlns:dc="http://purl.org/dc/elements/1.1/"
   xmlns:cc="http://creativecommons.org/ns#"
   xmlns:rdf="http://www.w3.org/1999/02/22-rdf-syntax-ns#"
   xmlns:svg="http://www.w3.org/2000/svg"
   xmlns="http://www.w3.org/2000/svg"
   xmlns:sodipodi="http://sodipodi.sourceforge.net/DTD/sodipodi-0.dtd"
   xmlns:inkscape="http://www.inkscape.org/namespaces/inkscape"
   version="1.1"
   id="Layer_1"
   x="0px"
   y="0px"
   viewBox="0 0 512 512"
   style="enable-background:new 0 0 512 512;"
   xml:space="preserve"
   sodipodi:docname="icon.svg"
   inkscape:version="0.92.3 (2405546, 2018-03-11)"><metadata
   id="metadata73"><rdf:RDF><cc:Work
       rdf:about=""><dc:format>image/svg+xml</dc:format><dc:type
         rdf:resource="http://purl.org/dc/dcmitype/StillImage" /></cc:Work></rdf:RDF></metadata><defs
   id="defs71" /><sodipodi:namedview
   pagecolor="#ffffff"
   bordercolor="#666666"
   borderopacity="1"
   objecttolerance="10"
   gridtolerance="10"
   guidetolerance="10"
   inkscape:pageopacity="0"
   inkscape:pageshadow="2"
   inkscape:window-width="1853"
   inkscape:window-height="1053"
   id="namedview69"
   showgrid="false"
   inkscape:zoom="1.6348877"
   inkscape:cx="148.36932"
   inkscape:cy="142.34918"
   inkscape:window-x="67"
   inkscape:window-y="27"
   inkscape:window-maximized="1"
   inkscape:current-layer="layer2" />





















<g
   inkscape:groupmode="layer"
   id="layer2"
   inkscape:label="Layer 2"><path
     style="fill:#000000;fill-opacity:0.90760869;stroke:#000000;stroke-width:1.01408005;stroke-linecap:butt;stroke-linejoin:miter;stroke-miterlimit:4;stroke-dasharray:none;stroke-opacity:0"
     id="path1136"
     sodipodi:type="arc"
     sodipodi:cx="256.34344"
     sodipodi:cy="256.86649"
     sodipodi:rx="256.70956"
     sodipodi:ry="255.60492"
     sodipodi:start="5.7429186"
     sodipodi:end="5.7417493"
     sodipodi:open="true"
     d="M 476.49026,125.39233 A 256.70956,255.60492 0 0 1 388.45014,476.02754 256.70956,255.60492 0 0 1 36.273868,388.46877 256.70956,255.60492 0 0 1 124.10809,37.782368 256.70956,255.60492 0 0 1 476.33571,125.13611" /></g><g
   inkscape:groupmode="layer"
   id="layer1"
   inkscape:label="Layer 1"><g
     transform="translate(-29.685261,0.32494594)"
     id="g6"
     style="fill:#ffffff"><g
       id="g4"
       style="fill:#ffffff"><path
         inkscape:connector-curvature="0"
         d="m 316.626,365.394 c -16.102,-32.206 -16.035,-63.89 33.986,-122.247 13.166,-15.36 32.808,-46.444 16.434,-82.045 -13.47,-29.286 -44.684,-46.786 -67.078,-46.786 -29.051,0 -47.423,11.162 -80.773,31.428 -10.774,6.546 -22.984,13.965 -37.905,22.492 -21.545,12.311 -34.727,28.122 -39.182,46.992 -6.667,28.244 9.17,52.439 9.848,53.455 0.129,0.194 0.286,0.408 0.43,0.591 0.336,0.426 33.676,43.77 42.09,144.751 3.468,41.621 17.822,70.509 42.661,85.861 14.593,9.018 30.763,12.114 46.089,12.114 23.058,0 44.204,-7.008 55.18,-11.4 10.37,-4.148 17.281,-11.027 20.543,-20.448 8.794,-25.398 -12.815,-62.82 -30.176,-92.888 -4.65,-8.054 -9.043,-15.661 -12.147,-21.87 z m 25.705,109.004 c -1.561,4.507 -4.883,7.644 -10.455,9.873 -48.758,19.502 -77.763,5.432 -85.493,0.653 -19.834,-12.257 -31.401,-36.603 -34.381,-72.359 -8.565,-102.772 -41.622,-148.719 -45.535,-153.83 -1.346,-2.177 -11.893,-20.102 -7.206,-39.623 3.33,-13.869 13.677,-25.848 30.753,-35.606 15.127,-8.644 27.444,-16.128 38.313,-22.732 32.624,-19.823 47.513,-28.871 71.641,-28.871 16.56,0 41.045,14.686 51.1,36.548 9.23,20.071 4.456,41.942 -13.81,63.252 -48.696,56.811 -58.891,96.501 -36.362,141.558 3.34,6.68 7.861,14.509 12.647,22.798 14.751,25.546 34.953,60.533 28.788,78.339 z"
         id="path2"
         style="fill:#ffffff" /></g></g><g
     transform="translate(-29.685261,0.32494594)"
     id="g12"
     style="fill:#ffffff"><g
       id="g10"
       style="fill:#ffffff"><path
         inkscape:connector-curvature="0"
         d="m 141.685,131.902 c -14.546,0 -26.38,11.834 -26.38,26.38 0,14.546 11.834,26.38 26.38,26.38 14.546,0 26.38,-11.834 26.38,-26.38 0,-14.545 -11.834,-26.38 -26.38,-26.38 z m 0,35.174 c -4.849,0 -8.794,-3.945 -8.794,-8.793 0,-4.849 3.945,-8.794 8.794,-8.794 4.849,0 8.793,3.945 8.793,8.794 0,4.849 -3.945,8.793 -8.793,8.793 z"
         id="path8"
         style="fill:#ffffff" /></g></g><g
     transform="translate(-29.685261,0.32494594)"
     id="g18"
     style="fill:#ffffff"><g
       id="g16"
       style="fill:#ffffff"><path
         inkscape:connector-curvature="0"
         d="m 185.652,96.728 c -14.546,0 -26.38,11.835 -26.38,26.38 0,14.545 11.835,26.38 26.38,26.38 14.545,0 26.38,-11.835 26.38,-26.38 0,-14.545 -11.834,-26.38 -26.38,-26.38 z m 0,35.174 c -4.849,0 -8.794,-3.945 -8.794,-8.794 0,-4.849 3.945,-8.794 8.794,-8.794 4.849,0 8.794,3.945 8.794,8.794 0,4.849 -3.945,8.794 -8.794,8.794 z"
         id="path14"
         style="fill:#ffffff" /></g></g><g
     transform="translate(-29.685261,0.32494594)"
     id="g24"
     style="fill:#ffffff"><g
       id="g22"
       style="fill:#ffffff"><path
         inkscape:connector-curvature="0"
         d="m 238.413,61.554 c -14.546,0 -26.38,11.835 -26.38,26.38 0,14.546 11.834,26.38 26.38,26.38 14.546,0 26.38,-11.834 26.38,-26.38 10e-4,-14.545 -11.834,-26.38 -26.38,-26.38 z m 0,35.174 c -4.849,0 -8.794,-3.945 -8.794,-8.794 0,-4.849 3.945,-8.793 8.794,-8.793 4.849,0 8.793,3.945 8.793,8.793 0,4.85 -3.944,8.794 -8.793,8.794 z"
         id="path20"
         style="fill:#ffffff" /></g></g><g
     transform="translate(-29.685261,0.32494594)"
     id="g30"
     style="fill:#ffffff"><g
       id="g28"
       style="fill:#ffffff"><path
         inkscape:connector-curvature="0"
         d="m 291.174,43.967 c -14.546,0 -26.38,11.835 -26.38,26.38 0,14.545 11.834,26.38 26.38,26.38 14.546,0 26.38,-11.835 26.38,-26.38 0,-14.545 -11.834,-26.38 -26.38,-26.38 z m 0,35.174 c -4.849,0 -8.794,-3.945 -8.794,-8.794 0,-4.849 3.945,-8.794 8.794,-8.794 4.849,0 8.793,3.945 8.793,8.794 0,4.849 -3.944,8.794 -8.793,8.794 z"
         id="path26"
         style="fill:#ffffff" /></g></g><g
     transform="translate(-29.685261,0.32494594)"
     id="g36"
     style="fill:#ffffff"><g
       id="g34"
       style="fill:#ffffff"><path
         inkscape:connector-curvature="0"
         d="m 361.522,0 c -20.053,0 -35.174,24.573 -35.174,57.158 0,32.585 15.121,57.158 35.174,57.158 20.053,0 35.174,-24.573 35.174,-57.158 C 396.696,24.573 381.575,0 361.522,0 Z m 0,96.728 c -10.735,0 -17.587,-23.436 -17.587,-39.571 0,-16.135 6.852,-39.571 17.587,-39.571 10.735,0 17.587,23.436 17.587,39.571 0,16.135 -6.852,39.571 -17.587,39.571 z"
         id="path32"
         style="fill:#ffffff" /></g></g><g
     transform="translate(-29.685261,0.32494594)"
     id="g38"
     style="fill:#ffffff" /><g
     transform="translate(-29.685261,0.32494594)"
     id="g40"
     style="fill:#ffffff" /><g
     transform="translate(-29.685261,0.32494594)"
     id="g42"
     style="fill:#ffffff" /><g
     transform="translate(-29.685261,0.32494594)"
     id="g44"
     style="fill:#ffffff" /><g
     transform="translate(-29.685261,0.32494594)"
     id="g46"
     style="fill:#ffffff" /><g
     transform="translate(-29.685261,0.32494594)"
     id="g48"
     style="fill:#ffffff" /><g
     transform="translate(-29.685261,0.32494594)"
     id="g50"
     style="fill:#ffffff" /><g
     transform="translate(-29.685261,0.32494594)"
     id="g52"
     style="fill:#ffffff" /><g
     transform="translate(-29.685261,0.32494594)"
     id="g54"
     style="fill:#ffffff" /><g
     transform="translate(-29.685261,0.32494594)"
     id="g56"
     style="fill:#ffffff" /><g
     transform="translate(-29.685261,0.32494594)"
     id="g58"
     style="fill:#ffffff" /><g
     transform="translate(-29.685261,0.32494594)"
     id="g60"
     style="fill:#ffffff" /><g
     transform="translate(-29.685261,0.32494594)"
     id="g62"
     style="fill:#ffffff" /><g
     transform="translate(-29.685261,0.32494594)"
     id="g64"
     style="fill:#ffffff" /><g
     transform="translate(-29.685261,0.32494594)"
     id="g66"
     style="fill:#ffffff" /></g></svg>