<?xml version="1.0" encoding="UTF-8" standalone="no"?>
<!-- Generator: Adobe Illustrator 19.0.0, SVG Export Plug-In . SVG Version: 6.00 Build 0)  -->

<svg
   xmlns:dc="http://purl.org/dc/elements/1.1/"
   xmlns:cc="http://creativecommons.org/ns#"
   xmlns:rdf="http://www.w3.org/1999/02/22-rdf-syntax-ns#"
   xmlns:svg="http://www.w3.org/2000/svg"
   xmlns="http://www.w3.org/2000/svg"
   xmlns:sodipodi="http://sodipodi.sourceforge.net/DTD/sodipodi-0.dtd"
   xmlns:inkscape="http://www.inkscape.org/namespaces/inkscape"
   version="1.1"
   id="Layer_1"
   x="0px"
   y="0px"
   viewBox="0 0 512 512"
   style="enable-background:new 0 0 512 512;"
   xml:space="preserve"
   sodipodi:docname="foot-piedweb.svg"
   inkscape:version="0.92.3 (2405546, 2018-03-11)"><metadata
   id="metadata73"><rdf:RDF><cc:Work
       rdf:about=""><dc:format>image/svg+xml</dc:format><dc:type
         rdf:resource="http://purl.org/dc/dcmitype/StillImage" /><dc:title /></cc:Work></rdf:RDF></metadata><defs
   id="defs71" /><sodipodi:namedview
   pagecolor="#ffffff"
   bordercolor="#666666"
   borderopacity="1"
   objecttolerance="10"
   gridtolerance="10"
   guidetolerance="10"
   inkscape:pageopacity="0"
   inkscape:pageshadow="2"
   inkscape:window-width="1853"
   inkscape:window-height="1052"
   id="namedview69"
   showgrid="false"
   inkscape:zoom="1.3384635"
   inkscape:cx="129.77344"
   inkscape:cy="228.52213"
   inkscape:window-x="67"
   inkscape:window-y="28"
   inkscape:window-maximized="1"
   inkscape:current-layer="Layer_1" />
<g
   id="g6"
   style="fill:#37413e;fill-opacity:1">
	<g
   id="g4"
   style="fill:#37413e;fill-opacity:1">
		<path
   d="m 316.626,365.394 c -16.102,-32.206 -16.035,-63.89 33.986,-122.247 13.166,-15.36 32.808,-46.444 16.434,-82.045 -13.47,-29.286 -44.684,-46.786 -67.078,-46.786 -29.051,0 -47.423,11.162 -80.773,31.428 -10.774,6.546 -22.984,13.965 -37.905,22.492 -21.545,12.311 -34.727,28.122 -39.182,46.992 -6.667,28.244 9.17,52.439 9.848,53.455 0.129,0.194 0.286,0.408 0.43,0.591 0.336,0.426 33.676,43.77 42.09,144.751 3.468,41.621 17.822,70.509 42.661,85.861 14.593,9.018 30.763,12.114 46.089,12.114 23.058,0 44.204,-7.008 55.18,-11.4 10.37,-4.148 17.281,-11.027 20.543,-20.448 8.794,-25.398 -12.815,-62.82 -30.176,-92.888 -4.65,-8.054 -9.043,-15.661 -12.147,-21.87 z m -88.299,-204.62 c -152.218,234.15067 -76.109,117.07533 0,0 z"
   id="path2"
   inkscape:connector-curvature="0"
   sodipodi:nodetypes="cccscccccscscscccc"
   style="fill:#37413e;fill-opacity:1" />
	</g>
</g>
<g
   id="g12"
   style="fill:#37413e;fill-opacity:1">
	<g
   id="g10"
   style="fill:#37413e;fill-opacity:1">
		<path
   d="m 142.74159,139.29816 c -14.546,0 -22.15362,4.96614 -22.15362,19.51214 0,14.546 6.55103,25.8517 21.09703,25.8517 14.546,0 26.38,-11.834 26.38,-26.38 0,-14.545 -10.77741,-18.98384 -25.32341,-18.98384 z"
   id="path8"
   inkscape:connector-curvature="0"
   sodipodi:nodetypes="sssss"
   style="fill:#37413e;fill-opacity:1" />
	</g>
</g>
<g
   id="g18"
   transform="translate(0.99264064,-2.6470417)"
   style="fill:#37413e;fill-opacity:1">
	<g
   id="g16"
   style="fill:#37413e;fill-opacity:1">
		<path
   d="m 185.652,101.48268 c -14.546,0 -20.04043,6.55202 -20.04043,21.09702 0,14.545 5.49543,26.9083 20.04043,26.9083 14.545,0 26.38,-11.835 26.38,-26.38 0,-14.545 -11.834,-21.62532 -26.38,-21.62532 z"
   id="path14"
   inkscape:connector-curvature="0"
   sodipodi:nodetypes="sssss"
   style="fill:#37413e;fill-opacity:1" />
	</g>
</g>
<g
   id="g24"
   style="fill:#37413e;fill-opacity:1">
	<g
   id="g22"
   style="fill:#37413e;fill-opacity:1">
		<path
   d="m 238.413,65.780379 c -14.546,0 -17.92724,9.193513 -17.92724,23.738513 0,14.545998 3.38124,24.795108 17.92724,24.795108 14.546,0 26.38,-11.834 26.38,-26.38 10e-4,-14.545 -11.834,-22.153621 -26.38,-22.153621 z"
   id="path20"
   inkscape:connector-curvature="0"
   sodipodi:nodetypes="ssscs"
   style="fill:#37413e;fill-opacity:1" />
	</g>
</g>
<g
   id="g30"
   transform="translate(3.3088022,-1.3235209)"
   style="fill:#37413e;fill-opacity:1">
	<g
   id="g28"
   style="fill:#37413e;fill-opacity:1">
		<path
   d="m 292.75889,44.495297 c -14.546,0 -23.21021,8.665216 -23.21021,23.210216 0,14.545 7.07932,29.021487 21.62532,29.021487 14.546,0 26.38,-11.835 26.38,-26.38 0,-14.545 -10.24911,-25.851703 -24.79511,-25.851703 z"
   id="path26"
   inkscape:connector-curvature="0"
   sodipodi:nodetypes="sssss"
   style="fill:#37413e;fill-opacity:1" />
	</g>
</g>
<g
   id="g36"
   style="fill:#37413e;fill-opacity:1">
	<g
   id="g34"
   transform="rotate(8.4131258,361.522,57.158)"
   style="fill:#37413e;fill-opacity:1">
		<path
   d="m 366.66734,13.12415 c -20.053,0 -34.93863,11.721125 -34.93863,44.306125 0,32.585 9.74029,56.885725 29.79329,56.885725 20.053,0 35.174,-24.573 35.174,-57.158 0,-32.585 -9.97566,-44.03385 -30.02866,-44.03385 z"
   id="path32"
   inkscape:connector-curvature="0"
   sodipodi:nodetypes="sssss"
   style="fill:#37413e;fill-opacity:1" />
	</g>
</g>
<g
   id="g38"
   style="fill:#37413e;fill-opacity:1">
</g>
<g
   id="g40"
   style="fill:#37413e;fill-opacity:1">
</g>
<g
   id="g42"
   style="fill:#37413e;fill-opacity:1">
</g>
<g
   id="g44"
   style="fill:#37413e;fill-opacity:1">
</g>
<g
   id="g46"
   style="fill:#37413e;fill-opacity:1">
</g>
<g
   id="g48"
   style="fill:#37413e;fill-opacity:1">
</g>
<g
   id="g50"
   style="fill:#37413e;fill-opacity:1">
</g>
<g
   id="g52"
   style="fill:#37413e;fill-opacity:1">
</g>
<g
   id="g54"
   style="fill:#37413e;fill-opacity:1">
</g>
<g
   id="g56"
   style="fill:#37413e;fill-opacity:1">
</g>
<g
   id="g58"
   style="fill:#37413e;fill-opacity:1">
</g>
<g
   id="g60"
   style="fill:#37413e;fill-opacity:1">
</g>
<g
   id="g62"
   style="fill:#37413e;fill-opacity:1">
</g>
<g
   id="g64"
   style="fill:#37413e;fill-opacity:1">
</g>
<g
   id="g66"
   style="fill:#37413e;fill-opacity:1">
</g>
</svg>